<svg width="57" height="64" viewBox="0 0 57 64" fill="none" xmlns="http://www.w3.org/2000/svg">
<path d="M32.807 0.189213C29.9282 0.834462 27.2314 2.90257 25.9078 5.48357C24.9978 7.28696 24.6504 8.7429 24.6504 10.7779C24.6669 13.8718 25.5604 16.0226 27.7608 18.2397C29.283 19.7783 30.7389 20.6056 32.7574 21.1185C37.9194 22.4255 43.2964 19.5632 45.3315 14.4178C45.7616 13.3258 45.7947 13.1107 45.7782 10.7779C45.7782 8.49473 45.7451 8.19692 45.3315 7.07187C44.1733 3.89526 41.7412 1.54589 38.4323 0.437386C37.0425 -0.0258702 34.3291 -0.141684 32.807 0.189213ZM37.9525 4.44124C42.2872 6.45971 43.4288 11.9361 40.2356 15.4105C37.605 18.2727 32.7574 18.1735 30.1598 15.2285C28.3895 13.21 28.0255 10.0169 29.2499 7.55167C30.0771 5.93028 31.8143 4.52397 33.5681 4.07725C34.7262 3.79599 36.9598 3.97799 37.9525 4.44124Z" fill="#A31551"/>
<path d="M32.9397 22.7398C32.3276 22.7895 32.311 22.8226 32.3276 23.4016C32.3276 23.7325 32.4269 24.6756 32.5261 25.5028C32.6916 26.7437 32.7743 27.025 33.0721 27.1408L33.403 27.2897L33.0225 28.9607C32.8239 29.8872 32.4765 31.3432 32.2614 32.2035L31.8974 33.7587L31.2687 33.8911C30.5573 34.04 29.912 34.4205 29.7135 34.8176C29.6473 34.9665 29.5481 38.9538 29.4984 43.6525L29.4157 52.2228L27.0829 50.3532C22.7316 46.8623 21.226 45.5552 20.7296 44.8107L20.2333 44.0662V37.9115C20.2333 31.1612 20.2829 30.6648 21.2425 29.2916C22.2021 27.8853 23.7408 27.1077 26.4045 26.6444C28.1583 26.3466 28.605 26.115 28.9359 25.3043C29.1344 24.8576 29.151 24.6094 29.0021 24.1627C28.7208 23.3355 28.2741 23.1038 27.0001 23.1038C22.136 23.1038 18.463 25.4201 17.0236 29.3743C16.7092 30.2347 16.6927 30.7641 16.6265 37.4151C16.5769 44.9596 16.61 45.5056 17.3379 46.6306C17.8343 47.3751 20.2002 49.344 27.877 55.4159L29.4819 56.6734L29.5315 59.7342C29.5811 62.7122 29.5977 62.795 29.9782 63.2086C30.2098 63.4567 30.6566 63.7215 30.9709 63.8207C31.368 63.9365 34.4619 63.9696 39.9217 63.9365C47.0194 63.8869 48.3265 63.8538 48.6243 63.6387C49.435 63.0597 55.9206 56.6237 56.2515 56.0612L56.632 55.449V45.2905V35.1485L55.9867 34.5032C55.5897 34.1062 55.1926 33.858 54.9444 33.858C54.5473 33.858 54.5308 33.8249 54.4315 32.3193C54.2495 29.6721 53.5381 28.0673 51.7678 26.3301C49.7824 24.3778 46.9863 23.2858 43.7932 23.2196C42.2214 23.1866 42.2049 23.1866 41.8078 23.6829C41.2287 24.4109 41.2618 25.4532 41.874 26.0819C42.238 26.4459 42.5854 26.5783 43.5615 26.7272C46.7713 27.2235 48.0783 27.7695 49.2695 29.1096C50.0968 30.0196 50.6097 31.2274 50.7751 32.6833L50.8909 33.6925L44.637 33.6595L38.3996 33.6098L37.9363 31.3763C37.6881 30.1519 37.3572 28.7125 37.2249 28.1831C37.0098 27.389 37.0098 27.2401 37.2083 27.2401C37.3241 27.2401 37.5392 27.0746 37.6716 26.8595C37.9032 26.479 38.3665 23.3355 38.2341 22.9384C38.1845 22.7729 37.6385 22.7068 35.8516 22.7068C34.5942 22.6902 33.2706 22.7068 32.9397 22.7398ZM53.1576 45.6876C53.1576 52.2393 53.1079 54.0593 52.959 54.1254C52.8432 54.1585 51.8671 54.2247 50.7917 54.2743C48.6739 54.3736 47.9294 54.6218 47.7805 55.2505C47.7474 55.449 47.6812 56.5575 47.6647 57.6991C47.6316 59.1716 47.5489 59.8665 47.3834 60.0485C47.1849 60.2967 46.4569 60.3298 40.1533 60.3298H33.1383V48.8311V37.3324H43.1479H53.1576V45.6876Z" fill="#A31551"/>
<path d="M36.2654 41.6175C35.5374 42.3455 35.6201 43.272 36.4639 43.7022C36.8444 43.9007 38.0522 43.9504 43.4458 43.9504H49.9645L50.4112 43.5202C50.9903 42.9246 50.9737 42.2463 50.3616 41.6175L49.8818 41.1377H43.3135H36.7452L36.2654 41.6175Z" fill="#A31551"/>
<path d="M36.1996 47.491C35.6867 48.0039 35.6702 48.7153 36.1334 49.3109L36.4643 49.7411H41.494C44.257 49.7411 46.6394 49.6914 46.7883 49.6418C47.4997 49.3605 47.6321 48.0535 47.0034 47.4744C46.7056 47.2097 46.2258 47.1766 41.6429 47.127L36.6132 47.0773L36.1996 47.491Z" fill="#A31551"/>
<path d="M36.5302 53.232C35.736 53.6788 35.5375 54.688 36.1 55.3829C36.4144 55.78 36.464 55.78 40.0377 55.8296C43.5287 55.8792 43.6776 55.8627 44.1077 55.5318C44.6868 55.0685 44.753 53.9435 44.207 53.4471C43.8927 53.1659 43.5287 53.1328 40.3521 53.0997C38.0027 53.0666 36.7453 53.1162 36.5302 53.232Z" fill="#A31551"/>
<path d="M5.41006 26.1481C4.74826 26.7106 4.78135 27.6371 5.49278 28.2658L6.00567 28.7291H10.7706H15.519L16.2139 27.2401L16.8922 25.751H11.3828H5.85677L5.41006 26.1481Z" fill="#A31551"/>
<path d="M0.379474 33.494C-0.3485 34.0896 0.0154871 35.3636 1.0909 36.0088C1.58725 36.3232 1.96778 36.3397 8.12247 36.3397H14.6081V34.768V33.1962H7.67576C1.20672 33.1962 0.726916 33.2128 0.379474 33.494Z" fill="#A31551"/>
<path d="M6.02076 41.237C5.54096 41.8326 5.57405 42.6433 6.08694 43.1893L6.48402 43.6195H10.5541H14.6075V42.2132V40.8069H10.4879H6.35166L6.02076 41.237Z" fill="#A31551"/>
</svg>
